<svg version="1.1" id="Layer_1" xmlns="http://www.w3.org/2000/svg" xmlns:xlink="http://www.w3.org/1999/xlink" x="0px" y="0px"
	 width="100%" viewBox="0 0 1024 1536" enable-background="new 0 0 1024 1536" xml:space="preserve">
<path fill="none" opacity="1.000000" stroke="#000000" stroke-linecap="round" stroke-linejoin="round" stroke-width="2.000000"
	d="
M840.500000,892.500000 
	C827.879272,894.578064 815.204834,894.616882 802.500000,893.500000 
"/>
<path fill="none" opacity="1.000000" stroke="#000000" stroke-linecap="round" stroke-linejoin="round" stroke-width="2.000000"
	d="
M630.500000,905.500000 
	C619.833313,905.500000 609.166687,905.500000 598.500000,905.500000 
"/>
<path fill="none" opacity="1.000000" stroke="#000000" stroke-linecap="round" stroke-linejoin="round" stroke-width="2.000000"
	d="
M506.500000,736.500000 
	C505.862946,746.500000 504.601044,756.500000 506.500000,766.500000 
"/>
<path fill="none" opacity="1.000000" stroke="#000000" stroke-linecap="round" stroke-linejoin="round" stroke-width="2.000000"
	d="
M366.499969,607.500000 
	C364.166656,613.500000 361.833313,619.500000 359.499969,625.500000 
"/>
<path fill="none" opacity="1.000000" stroke="#000000" stroke-linecap="round" stroke-linejoin="round" stroke-width="2.000000"
	d="
M804.500000,663.500000 
	C803.973389,668.833313 802.524353,674.166687 804.500000,679.500000 
"/>
<path fill="none" opacity="1.000000" stroke="#000000" stroke-linecap="round" stroke-linejoin="round" stroke-width="2.000000"
	d="
M321.500000,720.500000 
	C319.833344,725.166687 318.166687,729.833313 316.500000,734.500000 
"/>
<path fill="none" opacity="1.000000" stroke="#000000" stroke-linecap="round" stroke-linejoin="round" stroke-width="2.000000"
	d="
M634.500000,755.500000 
	C627.676758,756.506348 625.739502,759.735107 628.500000,765.500000 
"/>
<path fill="none" opacity="1.000000" stroke="#000000" stroke-linecap="round" stroke-linejoin="round" stroke-width="4.000000"
	d="
M629.500000,731.500000 
	C622.301086,730.314514 620.417908,732.574341 622.000000,740.500000 
"/>
<path fill="none" opacity="1.000000" stroke="#000000" stroke-linecap="round" stroke-linejoin="round" stroke-width="3.000000"
	d="
M586.500000,764.500000 
	C586.178894,761.600464 586.063232,758.489563 589.529602,757.617798 
	C591.846680,757.034973 594.572815,756.818054 596.069519,759.966919 
	C597.090027,762.114075 595.619507,763.662354 595.500000,765.500000 
"/>
<path fill="none" opacity="1.000000" stroke="#000000" stroke-linecap="round" stroke-linejoin="round" stroke-width="3.000000"
	d="
M558.500000,784.500000 
	C555.775696,786.505676 552.105225,787.919922 553.500000,792.500000 
"/>
<path fill="none" opacity="1.000000" stroke="#000000" stroke-linecap="round" stroke-linejoin="round" stroke-width="4.000000"
	d="
M603.000000,673.500000 
	C595.208679,675.022156 587.271118,676.362915 580.043945,679.598145 
	C557.310364,689.775024 542.081970,706.987915 535.606262,731.028625 
	C524.494995,772.278809 546.253906,814.947754 588.103577,829.195740 
	C618.102051,839.408997 651.603760,830.600403 673.605652,803.586060 
	C680.523987,795.091614 685.500122,785.809021 688.428406,775.479675 
	C697.052673,745.058289 688.824890,711.389832 662.030151,690.461365 
	C647.263184,678.927429 630.671448,673.274841 611.999939,673.495300 
	C609.167053,673.528748 606.333313,673.500000 603.500000,673.500000 
"/>
</svg>